<svg width="64" height="38" viewBox="0 0 64 38" fill="none" xmlns="http://www.w3.org/2000/svg">
<path d="M8.40208 20.9279C8.40208 20.9279 19.2912 8.94414 24.8318 25.9596" stroke="#6289F5" stroke-width="7.46" stroke-miterlimit="10" stroke-linecap="round"/>
<path d="M3.22641 37.6169H60.7832C61.7981 36.6835 62.6081 35.5494 63.1618 34.2865C63.7156 33.0237 64.001 31.6596 64 30.2807C64 27.6414 62.9522 25.1101 61.0869 23.2429C59.2215 21.3758 56.6912 20.3255 54.0519 20.323H9.95769C7.31675 20.323 4.78397 21.3721 2.91654 23.2395C1.04911 25.107 0 27.6397 0 30.2807C0.000236816 31.6603 0.287155 33.0248 0.842562 34.2877C1.39797 35.5506 2.20974 36.6843 3.22641 37.6169Z" fill="#B47AFF"/>
<path d="M3.22644 37.617H60.7832C61.796 36.6879 62.6048 35.5587 63.1585 34.3009C63.7122 33.043 63.9988 31.6839 64 30.3096H0.0096381C0.00854527 31.6843 0.294042 33.0441 0.84791 34.3023C1.40178 35.5605 2.21185 36.6894 3.22644 37.617Z" fill="#9B75FA"/>
<path opacity="0.67" d="M60.6054 29.7156C60.848 29.4014 60.7917 28.9513 60.4796 28.7103C60.1674 28.4693 59.7177 28.5286 59.4751 28.8429L58.1689 30.5345C57.9263 30.8487 57.9826 31.2988 58.2947 31.5398C58.6068 31.7808 59.0566 31.7215 59.2992 31.4073L60.6054 29.7156Z" fill="#FF96FF"/>
<path d="M47.215 23.9335L42.1546 14.3311C42.1546 14.3311 27.6069 11.9017 26.445 12.0457C26.445 12.0457 22.4984 13.006 22.0087 14.4847C22.0087 14.4847 20.8852 23.0597 22.5657 24.0871C23.2788 23.9618 24.0022 23.9039 24.7262 23.9143L47.215 23.9335Z" fill="url(#paint0_linear)"/>
<path opacity="0.09" d="M10.2266 37.6554H51.901C51.901 37.6554 57.6624 29.3781 52.4771 21.9363H11.1292C11.1292 21.9363 4.82041 27.9474 10.2266 37.6554Z" fill="#715EFF"/>
<path opacity="0.16" d="M45.3521 20.3517C44.4365 21.5028 43.266 22.4255 41.9329 23.0471C40.5998 23.6686 39.1406 23.972 37.6702 23.9334H46.6293L46.9173 19.0649L45.3521 20.3517Z" fill="#2548A6"/>
<path d="M46.3604 16.4917C47.5933 18.5805 48.0116 21.051 47.5349 23.4292C47.0581 25.8074 45.7201 27.9259 43.7773 29.3781" stroke="url(#paint1_linear)" stroke-width="7.46" stroke-miterlimit="10" stroke-linecap="round"/>
<path d="M18.5614 14.5903L19.0031 19.065L26.0225 18.921L27.3092 12.0457L25.4463 12.1897C24.232 12.7175 22.9287 13.0107 21.6054 13.0539L20.2898 12.9291C20.072 12.9032 19.8512 12.9239 19.6421 12.9899C19.4329 13.056 19.2402 13.1657 19.0767 13.312C18.9132 13.4582 18.7827 13.6375 18.6939 13.8381C18.605 14.0386 18.5599 14.2557 18.5614 14.4751V14.5903Z" fill="#7643D1"/>
<path d="M10.8411 25.3643C10.8411 25.3643 16.8522 12.7851 28.3079 24.2216" stroke="url(#paint2_linear)" stroke-width="7.46" stroke-miterlimit="10" stroke-linecap="round"/>
<path d="M27.2708 12.0361H28.2311C28.2935 12.036 28.3551 12.0498 28.4115 12.0763C28.468 12.1029 28.5179 12.1416 28.5576 12.1898C29.2009 12.9292 31.9472 16.5109 32.581 24.212H31.5247L27.2708 12.0361Z" fill="#7643D1"/>
<path d="M32.1776 25.0859C31.5439 18.2394 28.884 12.6028 27.6261 11.9594C27.3579 11.8429 27.0687 11.7827 26.7763 11.7827C26.4839 11.7827 26.1946 11.8429 25.9265 11.9594C25.4229 12.1423 24.9736 12.4495 24.6206 12.8525C24.2212 13.3968 23.6993 13.8396 23.0971 14.1448C22.4949 14.4501 21.8293 14.6094 21.1541 14.6097H20.7028C20.6029 14.6101 20.5045 14.6337 20.4153 14.6787C20.3261 14.7237 20.2487 14.7888 20.189 14.869C20.1294 14.9491 20.0893 15.042 20.0718 15.1403C20.0543 15.2387 20.0599 15.3397 20.0882 15.4355L23.0266 25.1051C23.0266 25.1051 32.7538 31.2411 32.1776 25.0859Z" fill="#975CFF"/>
<path d="M28.2695 20.3998C28.5672 20.1118 28.2695 19.3148 27.6069 18.4793C28.2695 17.6247 28.5672 16.8373 28.2695 16.5589C27.9718 16.2804 27.1844 16.5589 26.349 17.231C25.504 16.5589 24.7166 16.2708 24.4285 16.5589C24.1405 16.8469 24.4285 17.6439 25.0911 18.4793C24.4285 19.3244 24.1309 20.1214 24.4285 20.3998C24.7262 20.6783 25.5136 20.3998 26.349 19.7373C27.1844 20.3998 27.9718 20.6975 28.2695 20.3998Z" fill="#8D36FF"/>
<path d="M23.2762 23.3477C24.3517 23.2133 25.1199 22.8676 25.1199 22.4451C25.1199 22.0226 24.3517 21.6865 23.2762 21.552C23.1514 20.4862 22.7961 19.7084 22.3832 19.7084C21.9703 19.7084 21.8455 20.0733 21.663 20.6686L22.9113 24.7496C23.1108 24.3061 23.2342 23.8322 23.2762 23.3477Z" fill="#8D36FF"/>
<path d="M22.2392 14.6481C22.3736 15.7235 22.7289 16.4917 23.1418 16.4917C23.5547 16.4917 23.91 15.7235 24.0348 14.6481C25.1103 14.5232 25.8785 14.1679 25.8785 13.755C25.8759 13.4838 25.7784 13.222 25.6031 13.015C25.4277 12.8081 25.1854 12.669 24.9183 12.6219C24.1123 13.6193 22.9797 14.2995 21.7207 14.5424C21.8917 14.5862 22.0647 14.6214 22.2392 14.6481Z" fill="#8D36FF"/>
<path d="M32.0912 24.2216C32.0144 23.463 31.9088 22.7332 31.7839 22.0226L31.5055 22.2243C30.6605 21.5617 29.8635 21.264 29.585 21.5617C29.3065 21.8594 29.585 22.6468 30.2572 23.4822C30.0263 23.7791 29.8298 24.1012 29.6714 24.4424L32.0912 24.2216Z" fill="#8D36FF"/>
<path d="M41.6264 23.9335H22.1527V25.153C22.1527 25.8576 22.4313 26.5337 22.9278 27.0338C23.4242 27.5339 24.0983 27.8174 24.803 27.8224L38.9377 27.9281C39.6466 27.9306 40.3276 27.6521 40.8315 27.1536C41.3355 26.655 41.6213 25.9771 41.6264 25.2682V23.9335Z" fill="#AD6EFF"/>
<g style="mix-blend-mode:overlay">
<path d="M16.2088 35.1108H8.33485C7.97953 35.1108 7.69149 35.3989 7.69149 35.7542C7.69149 36.1095 7.97953 36.3976 8.33485 36.3976H16.2088C16.5641 36.3976 16.8522 36.1095 16.8522 35.7542C16.8522 35.3989 16.5641 35.1108 16.2088 35.1108Z" fill="#6678FF"/>
</g>
<g style="mix-blend-mode:overlay">
<path d="M20.5107 35.1108H18.3598C18.0045 35.1108 17.7164 35.3989 17.7164 35.7542C17.7164 36.1095 18.0045 36.3976 18.3598 36.3976H20.5107C20.866 36.3976 21.1541 36.1095 21.1541 35.7542C21.1541 35.3989 20.866 35.1108 20.5107 35.1108Z" fill="#6678FF"/>
</g>
<path d="M38.4192 18.1241L51.5841 22.6468C54.0904 22.7908 57.8449 23.2037 59.3141 20.0829L62.0795 12.0745C62.5034 10.8164 62.4109 9.44153 61.8222 8.25158C61.2335 7.06162 60.1968 6.15381 58.9396 5.72735L46.322 1.38707C45.4122 1.00495 44.4258 0.84054 43.4413 0.906946C39.3411 0.906946 37.1421 1.77116 36.1627 3.9125L35.2792 11.8249C34.8674 13.0768 34.9662 14.4406 35.5542 15.62C36.1421 16.7995 37.1717 17.6993 38.4192 18.1241Z" fill="url(#paint3_linear)"/>
<path d="M35.9047 4.44729L33.4777 11.4721C32.6291 13.9282 33.9322 16.6072 36.3884 17.4558L49.7482 22.0716C52.2043 22.9202 54.8833 21.6171 55.7319 19.1609L58.159 12.1361C59.0076 9.67999 57.7044 7.00099 55.2483 6.15239L41.8885 1.53658C39.4323 0.687988 36.7533 1.99115 35.9047 4.44729Z" fill="url(#paint4_linear)"/>
<path d="M36.3643 14.0142L40.9543 15.5794C41.9616 15.9254 43.0649 15.8579 44.0225 15.3917C44.9801 14.9255 45.7138 14.0986 46.0628 13.0924L47.1094 9.90436C47.174 9.71528 47.2003 9.51527 47.1868 9.31594C47.1733 9.1166 47.1204 8.92193 47.0311 8.74324C46.9417 8.56455 46.8177 8.4054 46.6664 8.27504C46.515 8.14468 46.3392 8.04571 46.1492 7.98388L37.0077 4.84389H36.9021C36.4447 4.74189 35.9673 4.77879 35.531 4.94987C35.0948 5.12095 34.7196 5.41841 34.4535 5.80413L34.0406 9.2706C33.8804 9.73458 33.8135 10.2256 33.8437 10.7155C33.8739 11.2055 34.0006 11.6846 34.2165 12.1254C34.4325 12.5662 34.7334 12.96 35.102 13.2841C35.4706 13.6082 35.8996 13.8564 36.3643 14.0142Z" fill="#99B9FA"/>
<path d="M39.9357 15.857L35.3977 14.2891C34.4685 13.9681 33.705 13.2911 33.275 12.4071C32.845 11.5231 32.7837 10.5045 33.1048 9.57539L34.3026 6.10837C34.4332 5.73046 34.7085 5.41989 35.0681 5.24499C35.4276 5.07009 35.8419 5.04519 36.2198 5.17576L45.2051 8.28014C45.583 8.41071 45.8935 8.68606 46.0684 9.04561C46.2433 9.40516 46.2682 9.81947 46.1377 10.1974L45.0402 13.374C44.6925 14.3801 43.9594 15.207 43.0022 15.6727C42.0449 16.1383 40.9418 16.2046 39.9357 15.857Z" fill="#B4CBFB"/>
<path d="M47.676 12.5643C47.8252 12.9761 48.0711 13.3461 48.393 13.6431C48.7149 13.9402 49.1034 14.1556 49.5258 14.2713C49.9483 14.3871 50.3923 14.3997 50.8207 14.3082C51.249 14.2167 51.6492 14.0237 51.9874 13.7454C52.0177 13.7145 52.0416 13.678 52.0577 13.6378C52.0739 13.5977 52.0819 13.5548 52.0815 13.5116C52.081 13.4683 52.0721 13.4256 52.0551 13.3858C52.0382 13.346 52.0135 13.31 51.9826 13.2797C51.9517 13.2494 51.9152 13.2256 51.8751 13.2094C51.8349 13.1933 51.792 13.1852 51.7488 13.1856C51.7055 13.1861 51.6628 13.1951 51.623 13.212C51.5832 13.229 51.5472 13.2536 51.5169 13.2845C51.2543 13.4832 50.9487 13.6174 50.6247 13.6763C50.3007 13.7353 49.9674 13.7173 49.6517 13.6239C49.3359 13.5305 49.0465 13.3642 48.8067 13.1384C48.567 12.9127 48.3836 12.6338 48.2713 12.3243C48.2467 12.2413 48.191 12.1711 48.1159 12.1281C48.0408 12.0852 47.952 12.0729 47.868 12.0938C47.7851 12.1184 47.7148 12.1741 47.6719 12.2492C47.629 12.3244 47.6167 12.4131 47.6375 12.4971L47.676 12.5643Z" fill="#202225"/>
<path d="M59.1988 21.4273L57.9985 21.024C57.914 20.9935 57.8448 20.9313 57.8054 20.8507C57.7659 20.77 57.7594 20.6772 57.7872 20.5919L59.3716 13.7454C59.5156 13.198 59.7845 13.3325 60.9752 13.3325H61.0424L62.8669 13.9758C63.8271 14.3119 63.9135 15.637 63.587 16.5973L62.2331 20.5055C61.9066 21.4753 59.9285 21.6769 59.1988 21.4273Z" fill="url(#paint5_linear)"/>
<path d="M59.1988 21.4273L57.2783 20.7456C57.1939 20.715 57.1246 20.6529 57.0852 20.5723C57.0458 20.4916 57.0393 20.3988 57.0671 20.3134L59.4004 13.5918C59.4145 13.5492 59.4369 13.5099 59.4664 13.4761C59.4958 13.4423 59.5317 13.4148 59.572 13.3951C59.6123 13.3754 59.6561 13.364 59.7008 13.3615C59.7455 13.359 59.7903 13.3654 59.8326 13.3805L61.6954 14.0335C62.1558 14.1947 62.5336 14.5317 62.746 14.9709C62.9583 15.41 62.988 15.9155 62.8285 16.3765L61.4746 20.2846C61.317 20.7327 60.9918 21.1022 60.5673 21.3153C60.1429 21.5285 59.6523 21.5686 59.1988 21.4273Z" fill="#779AF8"/>
<path d="M59.0699 14.7749L60.6673 15.3268C60.8791 15.4 61.0532 15.5543 61.1512 15.7558C61.2492 15.9574 61.2632 16.1896 61.19 16.4014L60.221 19.2059C60.1479 19.4177 59.9935 19.5918 59.792 19.6898C59.5905 19.7879 59.3582 19.8018 59.1464 19.7286L57.549 19.1767L59.0699 14.7749Z" fill="#99B9FA"/>
<path d="M40.2028 12.0991L38.3422 11.4562C38.0114 11.3419 37.6513 11.5154 37.5378 11.8437C37.4244 12.1721 37.6006 12.5309 37.9315 12.6452L39.792 13.288C40.1229 13.4023 40.483 13.2288 40.5964 12.9005C40.7099 12.5722 40.5336 12.2134 40.2028 12.0991Z" fill="url(#paint6_linear)"/>
<path d="M35.7565 10.8314L34.2422 10.3054C33.9349 10.1986 33.5992 10.3612 33.4925 10.6685L33.4639 10.7506C33.3572 11.0579 33.5198 11.3936 33.8271 11.5004L35.3414 12.0264C35.6487 12.1332 35.9844 11.9706 36.0912 11.6632L36.1197 11.5811C36.2264 11.2738 36.0638 10.9381 35.7565 10.8314Z" fill="url(#paint7_linear)"/>
<path d="M32.5041 19.5067C30.2475 21.4272 24.6013 20.5438 23.8619 12.6794C23.8619 12.6794 22.6232 14.5999 17.8316 14.1582C17.7466 14.1541 17.6655 14.1211 17.6017 14.0647C17.538 14.0084 17.4953 13.932 17.4808 13.8481C17.4662 13.7642 17.4807 13.6779 17.5218 13.6034C17.5629 13.5288 17.6281 13.4705 17.7068 13.438L23.7659 10.8646L27.5108 10.6821L32.5041 19.5067Z" fill="#EBF0F7"/>
<path d="M24.7838 12.6315C24.7838 12.6315 25.744 18.1913 29.1625 19.0651" stroke="#DAE1EA" stroke-width="0.21" stroke-miterlimit="10"/>
<path d="M26.3106 15.3297C26.3106 15.3297 27.7414 18.8346 30.3916 18.6041" stroke="#DAE1EA" stroke-width="0.21" stroke-miterlimit="10"/>
<path d="M18.7343 13.8992C18.7343 13.8992 21.8935 14.0144 23.0362 12.67" stroke="#DAE1EA" stroke-width="0.21" stroke-miterlimit="10"/>
<path d="M23.3147 11.0374L25.3408 10.5189L25.4368 11.4791L29.9595 21.0815C30.0029 21.1725 30.076 21.2459 30.1669 21.2896C30.2577 21.3333 30.3607 21.3446 30.4588 21.3216L30.9102 21.216L37.6318 17.98C37.7264 17.9361 37.811 17.8733 37.8806 17.7957C37.9501 17.718 38.0031 17.627 38.0364 17.5282C38.0696 17.4293 38.0824 17.3248 38.0739 17.2209C38.0655 17.1169 38.0359 17.0158 37.9871 16.9237L37.0269 15.1473L36.1531 13.3516L33.2723 7.77262L33.1763 7.06204L32.1201 7.02363L31.5727 6.75476L22.7097 10.4901L22.6233 11.1431L16.2953 13.486C16.203 13.5188 16.1272 13.5863 16.0841 13.6743C16.041 13.7622 16.0341 13.8636 16.0648 13.9566C16.082 14.0049 16.1086 14.0493 16.1431 14.0871C16.1776 14.125 16.2194 14.1556 16.2659 14.177C16.3125 14.1985 16.3628 14.2105 16.414 14.2122C16.4653 14.2139 16.5163 14.2053 16.5642 14.187L22.9786 11.6424L23.3147 11.0374Z" fill="#FF78BB"/>
<path d="M25.3407 10.5189L33.1859 7.06201L33.2819 7.77259L25.4367 11.4407L25.3407 10.5189Z" fill="#FF61AF"/>
<path d="M25.3408 10.5189L23.766 10.8646L22.7097 10.4901L22.6233 11.1431L16.1801 13.5149C16.1453 13.5267 16.1133 13.5454 16.0858 13.5697C16.0582 13.594 16.0358 13.6235 16.0197 13.6565C16.0037 13.6896 15.9943 13.7254 15.9921 13.7621C15.99 13.7988 15.9951 13.8355 16.0072 13.8702L16.0648 14.0526C16.091 14.126 16.1449 14.1861 16.2149 14.2202C16.2849 14.2544 16.3655 14.2597 16.4393 14.235L23.0458 11.8248L23.2186 11.2487L23.7948 11.4311L24.755 11.1527L24.8318 11.7384L29.9499 21.1008C29.9847 21.169 30.0417 21.2234 30.1115 21.2548C30.1814 21.2863 30.2599 21.2929 30.334 21.2736H30.5549C30.593 21.2658 30.6287 21.2487 30.6589 21.224C30.689 21.1993 30.7126 21.1675 30.7278 21.1316C30.7429 21.0957 30.7491 21.0566 30.7457 21.0178C30.7423 20.9789 30.7296 20.9415 30.7085 20.9087L25.3984 11.4984L25.3408 10.5189Z" fill="#FF4AA3"/>
<path d="M32.8306 9.69324L36.3258 16.2325" stroke="#FF4AA3" stroke-width="0.82" stroke-miterlimit="10" stroke-linecap="round"/>
<path d="M32.3985 11.8441L34.1078 15.2146" stroke="#FF4AA3" stroke-width="0.82" stroke-miterlimit="10" stroke-linecap="round"/>
<defs>
<linearGradient id="paint0_linear" x1="25.8785" y1="11.7864" x2="52.1987" y2="42.0628" gradientUnits="userSpaceOnUse">
<stop offset="0.1" stop-color="#7196FF"/>
<stop offset="0.22" stop-color="#6388F4"/>
<stop offset="0.43" stop-color="#5176E5"/>
<stop offset="0.58" stop-color="#4A6FE0"/>
</linearGradient>
<linearGradient id="paint1_linear" x1="51.3248" y1="22.9349" x2="40.1957" y2="22.9349" gradientUnits="userSpaceOnUse">
<stop offset="0.4" stop-color="#567EF6"/>
<stop offset="0.67" stop-color="#5C85F9"/>
<stop offset="1" stop-color="#6A94FF"/>
</linearGradient>
<linearGradient id="paint2_linear" x1="10.3514" y1="19.0171" x2="29.1721" y2="29.887" gradientUnits="userSpaceOnUse">
<stop stop-color="#7B9DFF"/>
<stop offset="0.21" stop-color="#7598FC"/>
<stop offset="0.49" stop-color="#6388F5"/>
<stop offset="0.82" stop-color="#476FE9"/>
<stop offset="0.95" stop-color="#3963E3"/>
</linearGradient>
<linearGradient id="paint3_linear" x1="45.6306" y1="-4.20153" x2="52.4003" y2="31.4042" gradientUnits="userSpaceOnUse">
<stop stop-color="#7D9DFA"/>
<stop offset="0.25" stop-color="#7A9AF8"/>
<stop offset="0.43" stop-color="#7091F3"/>
<stop offset="0.6" stop-color="#6082E9"/>
<stop offset="0.71" stop-color="#5174E0"/>
</linearGradient>
<linearGradient id="paint4_linear" x1="44.1937" y1="7.25179" x2="53.316" y2="32.7077" gradientUnits="userSpaceOnUse">
<stop offset="0.19" stop-color="#8AA6F9"/>
<stop offset="0.86" stop-color="#3B6CEB"/>
</linearGradient>
<linearGradient id="paint5_linear" x1="61.8778" y1="10.2309" x2="60.0246" y2="23.7703" gradientUnits="userSpaceOnUse">
<stop offset="0.16" stop-color="#7A9CFF"/>
<stop offset="0.7" stop-color="#5174E0"/>
</linearGradient>
<linearGradient id="paint6_linear" x1="39.3871" y1="12.5487" x2="40.8213" y2="13.3083" gradientUnits="userSpaceOnUse">
<stop offset="0.1" stop-color="#7196F8"/>
<stop offset="0.89" stop-color="#6389F0"/>
</linearGradient>
<linearGradient id="paint7_linear" x1="-66.7626" y1="166.576" x2="-63.62" y2="168.815" gradientUnits="userSpaceOnUse">
<stop offset="0.1" stop-color="#7196F8"/>
<stop offset="0.89" stop-color="#6389F0"/>
</linearGradient>
</defs>
</svg>
