<svg width="524" height="67" viewBox="0 0 524 67" fill="none" xmlns="http://www.w3.org/2000/svg">
<path d="M519.714 15.0977L523.318 13.5155C523.406 13.4276 523.406 13.3397 523.318 13.3397L519.714 11.7576L518.044 8.06592C518.044 7.97803 517.956 7.97803 517.956 8.06592L516.286 11.6697L512.682 13.3397C512.594 13.3397 512.594 13.4276 512.682 13.5155L516.286 15.0977L517.956 18.7015H518.044L519.714 15.0977Z" fill="#6ADBC6"/>
<path opacity="0.5" d="M296.191 6.4L299.591 4.9V4.7L296.191 3.3L294.691 0H294.491L292.991 3.3L289.691 4.7C289.591 4.8 289.591 4.9 289.691 4.9L292.991 6.4L294.491 9.8H294.691L296.191 6.4Z" fill="#9691FF"/>
<path d="M498.491 43.8621L503.567 41.6367C503.599 41.6007 503.616 41.5541 503.616 41.5058C503.616 41.4575 503.599 41.4109 503.567 41.3749L498.491 39.1495L496.214 34.0443C496.202 34.0304 496.187 34.0192 496.17 34.0116C496.153 34.004 496.135 34 496.116 34C496.098 34 496.08 34.004 496.063 34.0116C496.046 34.0192 496.031 34.0304 496.019 34.0443L493.741 39.0841L488.666 41.3749C488.634 41.4109 488.616 41.4575 488.616 41.5058C488.616 41.5541 488.634 41.6007 488.666 41.6367L493.741 43.8621L496.019 48.9018C496.105 49.0327 496.171 49.0327 496.214 48.9018L498.491 43.8621Z" fill="#628BF7"/>
<path d="M15.8927 58.15L23.5927 54.75C23.6457 54.75 23.6966 54.7289 23.7341 54.6914C23.7716 54.6539 23.7927 54.603 23.7927 54.55C23.7927 54.497 23.7716 54.4461 23.7341 54.4086C23.6966 54.3711 23.6457 54.35 23.5927 54.35L15.8927 50.95C15.8662 50.95 15.8407 50.9395 15.822 50.9207C15.8032 50.902 15.7927 50.8765 15.7927 50.85L12.2927 43.15C12.2927 42.95 12.0927 42.95 11.9927 43.15L8.59269 50.85H8.49269L0.692696 54.35C0.6435 54.405 0.616302 54.4762 0.616302 54.55C0.616302 54.6238 0.6435 54.695 0.692696 54.75L8.49269 58.15H8.59269L11.9927 65.95C12.0927 66.15 12.2927 66.15 12.2927 65.95L15.7927 58.25C15.7927 58.2235 15.8032 58.198 15.822 58.1793C15.8407 58.1605 15.8662 58.15 15.8927 58.15Z" fill="#FF7ABC"/>
</svg>
